<mxfile host="app.diagrams.net" agent="Mozilla/5.0 (Windows NT 10.0; Win64; x64) AppleWebKit/537.36 (KHTML, like Gecko) Chrome/131.0.0.0 Safari/537.36" version="26.0.2">
  <diagram name="Page-1" id="27KbdKUTnQ5X7d5Wh5Ly">
    <mxGraphModel dx="993" dy="573" grid="1" gridSize="10" guides="1" tooltips="1" connect="1" arrows="1" fold="1" page="1" pageScale="1" pageWidth="850" pageHeight="1100" math="0" shadow="0">
      <root>
        <mxCell id="0" />
        <mxCell id="1" parent="0" />
        <mxCell id="QQIKsFAn-lrsMAhu4-zk-8" style="edgeStyle=orthogonalEdgeStyle;rounded=0;orthogonalLoop=1;jettySize=auto;html=1;entryX=0.5;entryY=0;entryDx=0;entryDy=0;" edge="1" parent="1" source="QQIKsFAn-lrsMAhu4-zk-1" target="QQIKsFAn-lrsMAhu4-zk-3">
          <mxGeometry relative="1" as="geometry" />
        </mxCell>
        <mxCell id="QQIKsFAn-lrsMAhu4-zk-1" value="Begin" style="ellipse;whiteSpace=wrap;html=1;fillColor=#f8cecc;strokeColor=#b85450;" vertex="1" parent="1">
          <mxGeometry x="350" y="20" width="120" height="60" as="geometry" />
        </mxCell>
        <mxCell id="QQIKsFAn-lrsMAhu4-zk-2" value="End" style="ellipse;whiteSpace=wrap;html=1;fillColor=#f8cecc;strokeColor=#b85450;" vertex="1" parent="1">
          <mxGeometry x="350" y="430" width="120" height="60" as="geometry" />
        </mxCell>
        <mxCell id="QQIKsFAn-lrsMAhu4-zk-9" value="" style="edgeStyle=orthogonalEdgeStyle;rounded=0;orthogonalLoop=1;jettySize=auto;html=1;" edge="1" parent="1" source="QQIKsFAn-lrsMAhu4-zk-3" target="QQIKsFAn-lrsMAhu4-zk-4">
          <mxGeometry relative="1" as="geometry" />
        </mxCell>
        <mxCell id="QQIKsFAn-lrsMAhu4-zk-3" value="Input grade" style="shape=parallelogram;perimeter=parallelogramPerimeter;whiteSpace=wrap;html=1;fixedSize=1;fillColor=#dae8fc;strokeColor=#6c8ebf;" vertex="1" parent="1">
          <mxGeometry x="340" y="110" width="140" height="50" as="geometry" />
        </mxCell>
        <mxCell id="QQIKsFAn-lrsMAhu4-zk-10" value="" style="edgeStyle=orthogonalEdgeStyle;rounded=0;orthogonalLoop=1;jettySize=auto;html=1;" edge="1" parent="1" source="QQIKsFAn-lrsMAhu4-zk-4" target="QQIKsFAn-lrsMAhu4-zk-5">
          <mxGeometry relative="1" as="geometry" />
        </mxCell>
        <mxCell id="QQIKsFAn-lrsMAhu4-zk-18" value="" style="edgeStyle=orthogonalEdgeStyle;rounded=0;orthogonalLoop=1;jettySize=auto;html=1;" edge="1" parent="1" source="QQIKsFAn-lrsMAhu4-zk-4" target="QQIKsFAn-lrsMAhu4-zk-11">
          <mxGeometry relative="1" as="geometry" />
        </mxCell>
        <mxCell id="QQIKsFAn-lrsMAhu4-zk-4" value="Grade &amp;gt;=75" style="rhombus;whiteSpace=wrap;html=1;fillColor=#d5e8d4;strokeColor=#82b366;" vertex="1" parent="1">
          <mxGeometry x="355" y="190" width="110" height="80" as="geometry" />
        </mxCell>
        <mxCell id="QQIKsFAn-lrsMAhu4-zk-28" value="" style="edgeStyle=orthogonalEdgeStyle;rounded=0;orthogonalLoop=1;jettySize=auto;html=1;" edge="1" parent="1" source="QQIKsFAn-lrsMAhu4-zk-5" target="QQIKsFAn-lrsMAhu4-zk-2">
          <mxGeometry relative="1" as="geometry" />
        </mxCell>
        <mxCell id="QQIKsFAn-lrsMAhu4-zk-5" value="Output &quot;Loại A&quot;" style="shape=parallelogram;perimeter=parallelogramPerimeter;whiteSpace=wrap;html=1;fixedSize=1;fillColor=#dae8fc;strokeColor=#6c8ebf;" vertex="1" parent="1">
          <mxGeometry x="340" y="300" width="140" height="50" as="geometry" />
        </mxCell>
        <mxCell id="QQIKsFAn-lrsMAhu4-zk-16" value="" style="edgeStyle=orthogonalEdgeStyle;rounded=0;orthogonalLoop=1;jettySize=auto;html=1;" edge="1" parent="1" source="QQIKsFAn-lrsMAhu4-zk-11" target="QQIKsFAn-lrsMAhu4-zk-14">
          <mxGeometry relative="1" as="geometry" />
        </mxCell>
        <mxCell id="QQIKsFAn-lrsMAhu4-zk-19" value="" style="edgeStyle=orthogonalEdgeStyle;rounded=0;orthogonalLoop=1;jettySize=auto;html=1;" edge="1" parent="1" source="QQIKsFAn-lrsMAhu4-zk-11" target="QQIKsFAn-lrsMAhu4-zk-17">
          <mxGeometry relative="1" as="geometry" />
        </mxCell>
        <mxCell id="QQIKsFAn-lrsMAhu4-zk-11" value="Grade &amp;gt;=65" style="rhombus;whiteSpace=wrap;html=1;fillColor=#d5e8d4;strokeColor=#82b366;" vertex="1" parent="1">
          <mxGeometry x="520" y="190" width="110" height="80" as="geometry" />
        </mxCell>
        <mxCell id="QQIKsFAn-lrsMAhu4-zk-29" style="edgeStyle=orthogonalEdgeStyle;rounded=0;orthogonalLoop=1;jettySize=auto;html=1;entryX=0.5;entryY=0;entryDx=0;entryDy=0;" edge="1" parent="1" source="QQIKsFAn-lrsMAhu4-zk-14" target="QQIKsFAn-lrsMAhu4-zk-2">
          <mxGeometry relative="1" as="geometry">
            <Array as="points">
              <mxPoint x="575" y="400" />
              <mxPoint x="410" y="400" />
            </Array>
          </mxGeometry>
        </mxCell>
        <mxCell id="QQIKsFAn-lrsMAhu4-zk-14" value="Output &quot;Loại B&quot;" style="shape=parallelogram;perimeter=parallelogramPerimeter;whiteSpace=wrap;html=1;fixedSize=1;fillColor=#dae8fc;strokeColor=#6c8ebf;" vertex="1" parent="1">
          <mxGeometry x="505" y="310" width="140" height="50" as="geometry" />
        </mxCell>
        <mxCell id="QQIKsFAn-lrsMAhu4-zk-21" value="" style="edgeStyle=orthogonalEdgeStyle;rounded=0;orthogonalLoop=1;jettySize=auto;html=1;" edge="1" parent="1" source="QQIKsFAn-lrsMAhu4-zk-17" target="QQIKsFAn-lrsMAhu4-zk-20">
          <mxGeometry relative="1" as="geometry" />
        </mxCell>
        <mxCell id="QQIKsFAn-lrsMAhu4-zk-23" value="" style="edgeStyle=orthogonalEdgeStyle;rounded=0;orthogonalLoop=1;jettySize=auto;html=1;" edge="1" parent="1" source="QQIKsFAn-lrsMAhu4-zk-17" target="QQIKsFAn-lrsMAhu4-zk-22">
          <mxGeometry relative="1" as="geometry" />
        </mxCell>
        <mxCell id="QQIKsFAn-lrsMAhu4-zk-17" value="Grade &amp;gt;=45" style="rhombus;whiteSpace=wrap;html=1;fillColor=#d5e8d4;strokeColor=#82b366;" vertex="1" parent="1">
          <mxGeometry x="690" y="190" width="110" height="80" as="geometry" />
        </mxCell>
        <mxCell id="QQIKsFAn-lrsMAhu4-zk-30" style="edgeStyle=orthogonalEdgeStyle;rounded=0;orthogonalLoop=1;jettySize=auto;html=1;" edge="1" parent="1" source="QQIKsFAn-lrsMAhu4-zk-20">
          <mxGeometry relative="1" as="geometry">
            <mxPoint x="410" y="430.0000000000001" as="targetPoint" />
            <Array as="points">
              <mxPoint x="745" y="400" />
              <mxPoint x="410" y="400" />
            </Array>
          </mxGeometry>
        </mxCell>
        <mxCell id="QQIKsFAn-lrsMAhu4-zk-20" value="Output &quot;Loại C&quot;" style="shape=parallelogram;perimeter=parallelogramPerimeter;whiteSpace=wrap;html=1;fixedSize=1;fillColor=#dae8fc;strokeColor=#6c8ebf;" vertex="1" parent="1">
          <mxGeometry x="675" y="320" width="140" height="50" as="geometry" />
        </mxCell>
        <mxCell id="QQIKsFAn-lrsMAhu4-zk-25" value="" style="edgeStyle=orthogonalEdgeStyle;rounded=0;orthogonalLoop=1;jettySize=auto;html=1;" edge="1" parent="1" source="QQIKsFAn-lrsMAhu4-zk-22" target="QQIKsFAn-lrsMAhu4-zk-24">
          <mxGeometry relative="1" as="geometry" />
        </mxCell>
        <mxCell id="QQIKsFAn-lrsMAhu4-zk-27" value="" style="edgeStyle=orthogonalEdgeStyle;rounded=0;orthogonalLoop=1;jettySize=auto;html=1;" edge="1" parent="1" source="QQIKsFAn-lrsMAhu4-zk-22" target="QQIKsFAn-lrsMAhu4-zk-26">
          <mxGeometry relative="1" as="geometry" />
        </mxCell>
        <mxCell id="QQIKsFAn-lrsMAhu4-zk-22" value="Grade &amp;gt;=35" style="rhombus;whiteSpace=wrap;html=1;fillColor=#d5e8d4;strokeColor=#82b366;" vertex="1" parent="1">
          <mxGeometry x="850" y="190" width="110" height="80" as="geometry" />
        </mxCell>
        <mxCell id="QQIKsFAn-lrsMAhu4-zk-31" style="edgeStyle=orthogonalEdgeStyle;rounded=0;orthogonalLoop=1;jettySize=auto;html=1;entryX=0.5;entryY=0;entryDx=0;entryDy=0;" edge="1" parent="1" source="QQIKsFAn-lrsMAhu4-zk-24" target="QQIKsFAn-lrsMAhu4-zk-2">
          <mxGeometry relative="1" as="geometry">
            <Array as="points">
              <mxPoint x="905" y="400" />
              <mxPoint x="410" y="400" />
            </Array>
          </mxGeometry>
        </mxCell>
        <mxCell id="QQIKsFAn-lrsMAhu4-zk-24" value="Output &quot;Loại D&quot;" style="shape=parallelogram;perimeter=parallelogramPerimeter;whiteSpace=wrap;html=1;fixedSize=1;fillColor=#dae8fc;strokeColor=#6c8ebf;" vertex="1" parent="1">
          <mxGeometry x="835" y="330" width="140" height="50" as="geometry" />
        </mxCell>
        <mxCell id="QQIKsFAn-lrsMAhu4-zk-32" style="edgeStyle=orthogonalEdgeStyle;rounded=0;orthogonalLoop=1;jettySize=auto;html=1;" edge="1" parent="1" source="QQIKsFAn-lrsMAhu4-zk-26">
          <mxGeometry relative="1" as="geometry">
            <mxPoint x="410" y="430.0000000000001" as="targetPoint" />
            <Array as="points">
              <mxPoint x="1090" y="400" />
              <mxPoint x="410" y="400" />
            </Array>
          </mxGeometry>
        </mxCell>
        <mxCell id="QQIKsFAn-lrsMAhu4-zk-26" value="Output &quot;Loại E&quot;" style="shape=parallelogram;perimeter=parallelogramPerimeter;whiteSpace=wrap;html=1;fixedSize=1;fillColor=#dae8fc;strokeColor=#6c8ebf;" vertex="1" parent="1">
          <mxGeometry x="1020" y="205" width="140" height="50" as="geometry" />
        </mxCell>
        <mxCell id="QQIKsFAn-lrsMAhu4-zk-33" value="&lt;h1 style=&quot;margin-top: 0px;&quot;&gt;Pseudo-code&lt;/h1&gt;&lt;p&gt;BEGIN&lt;/p&gt;&lt;p&gt;&lt;span style=&quot;white-space: pre;&quot;&gt;&#x9;&lt;/span&gt;Input grade&lt;br&gt;&lt;/p&gt;&lt;p&gt;&lt;span style=&quot;white-space: pre;&quot;&gt;&#x9;&lt;/span&gt;IF grade&amp;gt;=75 then Display &quot;Loại A&quot;&lt;br&gt;&lt;/p&gt;&lt;p&gt;&lt;span style=&quot;white-space: pre;&quot;&gt;&#x9;&lt;/span&gt;ELSE IF grade&amp;gt;=65 then Display &quot;Loại B&quot;&lt;br&gt;&lt;/p&gt;&lt;p&gt;&lt;span style=&quot;white-space: pre;&quot;&gt;&#x9;&lt;/span&gt;&lt;span style=&quot;white-space: pre;&quot;&gt;&#x9;E&lt;/span&gt;LSE IF grade&amp;gt;=45 then Display &quot;Loại C&quot;&lt;br&gt;&lt;/p&gt;&lt;p&gt;&lt;span style=&quot;white-space: pre;&quot;&gt;&#x9;&lt;/span&gt;&lt;span style=&quot;white-space: pre;&quot;&gt;&#x9;&lt;/span&gt;&lt;span style=&quot;white-space: pre;&quot;&gt;&#x9;&lt;/span&gt;ELSE IF grade &amp;gt;=35 then Display &quot;Loại D&quot;&lt;br&gt;&lt;/p&gt;&lt;p&gt;&lt;span style=&quot;white-space: pre;&quot;&gt;&#x9;&lt;/span&gt;&lt;span style=&quot;white-space: pre;&quot;&gt;&#x9;&lt;/span&gt;&lt;span style=&quot;white-space: pre;&quot;&gt;&#x9;&lt;/span&gt;&lt;span style=&quot;white-space: pre;&quot;&gt;&#x9;&lt;/span&gt;ELSE then Display &quot;Loại E&quot;&lt;br&gt;&lt;/p&gt;&lt;p&gt;&lt;span style=&quot;white-space: pre;&quot;&gt;&#x9;&lt;/span&gt;END IF&lt;br&gt;&lt;/p&gt;&lt;p&gt;END&lt;/p&gt;" style="text;html=1;whiteSpace=wrap;overflow=hidden;rounded=0;fillColor=default;" vertex="1" parent="1">
          <mxGeometry x="1" width="320" height="410" as="geometry" />
        </mxCell>
      </root>
    </mxGraphModel>
  </diagram>
</mxfile>
